<?xml version="1.0" encoding="us-ascii" standalone="no"?><svg xmlns="http://www.w3.org/2000/svg" xmlns:xlink="http://www.w3.org/1999/xlink" contentStyleType="text/css" height="870px" preserveAspectRatio="none" style="width:745px;height:870px;background:#FFFFFF;" version="1.1" viewBox="0 0 745 870" width="745px" zoomAndPan="magnify"><defs/><g><text fill="#000000" font-family="sans-serif" font-size="14" font-weight="bold" lengthAdjust="spacing" textLength="145" x="293" y="23.5352">ERD For Clip Genius</text><!--class Sports--><g id="elem_Sports"><rect codeLine="3" fill="#F1F1F1" height="113.9531" id="Sports" rx="2.5" ry="2.5" style="stroke:#181818;stroke-width:0.5;" width="179" x="266" y="44.4883"/><ellipse cx="329.25" cy="60.4883" fill="#ADD1B2" rx="11" ry="11" style="stroke:#181818;stroke-width:1.0;"/><path d="M332.8643,66.9883 L325.1445,66.9883 L325.1445,54.5952 L332.8643,54.5952 L332.8643,56.7534 L327.5933,56.7534 L327.5933,59.4263 L332.3662,59.4263 L332.3662,61.5845 L327.5933,61.5845 L327.5933,64.8301 L332.8643,64.8301 Z " fill="#000000"/><text fill="#000000" font-family="sans-serif" font-size="14" lengthAdjust="spacing" textLength="44" x="349.75" y="65.7793">Sports</text><line style="stroke:#181818;stroke-width:0.5;" x1="267" x2="444" y1="76.4883" y2="76.4883"/><ellipse cx="277" cy="90.2324" fill="#000000" rx="3" ry="3" style="stroke:#000000;stroke-width:1.0;"/><text fill="#000000" font-family="sans-serif" font-size="14" lengthAdjust="spacing" textLength="121" x="286" y="94.0234">SportID : INT &#171;PK&#187;</text><line style="stroke:#181818;stroke-width:1.0;" x1="267" x2="444" y1="100.9766" y2="100.9766"/><text fill="#000000" font-family="sans-serif" font-size="14" lengthAdjust="spacing" textLength="155" x="272" y="118.5117">Name : VARCHAR(100)</text><text fill="#000000" font-family="sans-serif" font-size="14" lengthAdjust="spacing" textLength="125" x="272" y="135">Description : TEXT</text><text fill="#000000" font-family="sans-serif" font-size="14" lengthAdjust="spacing" textLength="167" x="272" y="151.4883">CreatedDate : DATETIME</text></g><!--class Users--><g id="elem_Users"><rect codeLine="11" fill="#F1F1F1" height="179.9063" id="Users" rx="2.5" ry="2.5" style="stroke:#181818;stroke-width:0.5;" width="227" x="511" y="451.1283"/><ellipse cx="601.25" cy="467.1283" fill="#ADD1B2" rx="11" ry="11" style="stroke:#181818;stroke-width:1.0;"/><path d="M604.8643,473.6283 L597.1445,473.6283 L597.1445,461.2352 L604.8643,461.2352 L604.8643,463.3934 L599.5933,463.3934 L599.5933,466.0663 L604.3662,466.0663 L604.3662,468.2245 L599.5933,468.2245 L599.5933,471.4701 L604.8643,471.4701 Z " fill="#000000"/><text fill="#000000" font-family="sans-serif" font-size="14" lengthAdjust="spacing" textLength="38" x="621.75" y="472.4193">Users</text><line style="stroke:#181818;stroke-width:0.5;" x1="512" x2="737" y1="483.1283" y2="483.1283"/><ellipse cx="522" cy="496.8724" fill="#000000" rx="3" ry="3" style="stroke:#000000;stroke-width:1.0;"/><text fill="#000000" font-family="sans-serif" font-size="14" lengthAdjust="spacing" textLength="115" x="531" y="500.6634">UserID : INT &#171;PK&#187;</text><line style="stroke:#181818;stroke-width:1.0;" x1="512" x2="737" y1="507.6166" y2="507.6166"/><text fill="#000000" font-family="sans-serif" font-size="14" lengthAdjust="spacing" textLength="185" x="517" y="525.1517">Username : VARCHAR(100)</text><text fill="#000000" font-family="sans-serif" font-size="14" lengthAdjust="spacing" textLength="153" x="517" y="541.64">Email : VARCHAR(255)</text><text fill="#000000" font-family="sans-serif" font-size="14" lengthAdjust="spacing" textLength="215" x="517" y="558.1283">PasswordHash : VARCHAR(255)</text><text fill="#000000" font-family="sans-serif" font-size="14" lengthAdjust="spacing" textLength="196" x="517" y="574.6166">RegistrationDate : DATETIME</text><text fill="#000000" font-family="sans-serif" font-size="14" lengthAdjust="spacing" textLength="178" x="517" y="591.1048">LastLoginDate : DATETIME</text><text fill="#000000" font-family="sans-serif" font-size="14" lengthAdjust="spacing" textLength="173" x="517" y="607.5931">ModifiedDate : DATETIME</text><text fill="#000000" font-family="sans-serif" font-size="14" lengthAdjust="spacing" textLength="199" x="517" y="624.0814">Role : ENUM('admin', 'viewer')</text></g><!--class Matches--><g id="elem_Matches"><rect codeLine="23" fill="#F1F1F1" height="130.4414" id="Matches" rx="2.5" ry="2.5" style="stroke:#181818;stroke-width:0.5;" width="214" x="248.5" y="235.4383"/><ellipse cx="323.25" cy="251.4383" fill="#ADD1B2" rx="11" ry="11" style="stroke:#181818;stroke-width:1.0;"/><path d="M326.8643,257.9383 L319.1445,257.9383 L319.1445,245.5452 L326.8643,245.5452 L326.8643,247.7034 L321.5933,247.7034 L321.5933,250.3763 L326.3662,250.3763 L326.3662,252.5345 L321.5933,252.5345 L321.5933,255.7801 L326.8643,255.7801 Z " fill="#000000"/><text fill="#000000" font-family="sans-serif" font-size="14" lengthAdjust="spacing" textLength="56" x="343.75" y="256.7293">Matches</text><line style="stroke:#181818;stroke-width:0.5;" x1="249.5" x2="461.5" y1="267.4383" y2="267.4383"/><ellipse cx="259.5" cy="281.1824" fill="#000000" rx="3" ry="3" style="stroke:#000000;stroke-width:1.0;"/><text fill="#000000" font-family="sans-serif" font-size="14" lengthAdjust="spacing" textLength="125" x="268.5" y="284.9734">MatchID : INT &#171;PK&#187;</text><line style="stroke:#181818;stroke-width:1.0;" x1="249.5" x2="461.5" y1="291.9266" y2="291.9266"/><text fill="#000000" font-family="sans-serif" font-size="14" lengthAdjust="spacing" textLength="80" x="254.5" y="309.4617">Date : DATE</text><text fill="#000000" font-family="sans-serif" font-size="14" lengthAdjust="spacing" textLength="121" x="254.5" y="325.95">SportID : INT &#171;FK&#187;</text><text fill="#000000" font-family="sans-serif" font-size="14" lengthAdjust="spacing" textLength="202" x="254.5" y="342.4383">Team1Name : VARCHAR(255)</text><text fill="#000000" font-family="sans-serif" font-size="14" lengthAdjust="spacing" textLength="202" x="254.5" y="358.9266">Team2Name : VARCHAR(255)</text></g><!--class Videos--><g id="elem_Videos"><rect codeLine="32" fill="#F1F1F1" height="196.3945" id="Videos" rx="2.5" ry="2.5" style="stroke:#181818;stroke-width:0.5;" width="241" x="235" y="442.8883"/><ellipse cx="328.25" cy="458.8883" fill="#ADD1B2" rx="11" ry="11" style="stroke:#181818;stroke-width:1.0;"/><path d="M331.8643,465.3883 L324.1445,465.3883 L324.1445,452.9952 L331.8643,452.9952 L331.8643,455.1534 L326.5933,455.1534 L326.5933,457.8263 L331.3662,457.8263 L331.3662,459.9845 L326.5933,459.9845 L326.5933,463.2301 L331.8643,463.2301 Z " fill="#000000"/><text fill="#000000" font-family="sans-serif" font-size="14" lengthAdjust="spacing" textLength="46" x="348.75" y="464.1793">Videos</text><line style="stroke:#181818;stroke-width:0.5;" x1="236" x2="475" y1="474.8883" y2="474.8883"/><ellipse cx="246" cy="488.6324" fill="#000000" rx="3" ry="3" style="stroke:#000000;stroke-width:1.0;"/><text fill="#000000" font-family="sans-serif" font-size="14" lengthAdjust="spacing" textLength="123" x="255" y="492.4234">VideoID : INT &#171;PK&#187;</text><line style="stroke:#181818;stroke-width:1.0;" x1="236" x2="475" y1="499.3766" y2="499.3766"/><text fill="#000000" font-family="sans-serif" font-size="14" lengthAdjust="spacing" textLength="125" x="241" y="516.9117">MatchID : INT &#171;FK&#187;</text><text fill="#000000" font-family="sans-serif" font-size="14" lengthAdjust="spacing" textLength="218" x="241" y="533.4">VideoFilePath : VARCHAR(1024)</text><text fill="#000000" font-family="sans-serif" font-size="14" lengthAdjust="spacing" textLength="229" x="241" y="549.8883">ThumbnailPath : VARCHAR(1024)</text><text fill="#000000" font-family="sans-serif" font-size="14" lengthAdjust="spacing" textLength="109" x="241" y="566.3766">FileSize : BIGINT</text><text fill="#000000" font-family="sans-serif" font-size="14" lengthAdjust="spacing" textLength="95" x="241" y="582.8648">Duration : INT</text><text fill="#000000" font-family="sans-serif" font-size="14" lengthAdjust="spacing" textLength="96" x="241" y="599.3531">Views : BIGINT</text><text fill="#000000" font-family="sans-serif" font-size="14" lengthAdjust="spacing" textLength="167" x="241" y="615.8414">CreatedDate : DATETIME</text><text fill="#000000" font-family="sans-serif" font-size="14" lengthAdjust="spacing" textLength="173" x="241" y="632.3297">ModifiedDate : DATETIME</text></g><!--class Tags--><g id="elem_Tags"><rect codeLine="45" fill="#F1F1F1" height="80.9766" id="Tags" rx="2.5" ry="2.5" style="stroke:#181818;stroke-width:0.5;" width="193" x="7" y="500.5883"/><ellipse cx="82.75" cy="516.5883" fill="#ADD1B2" rx="11" ry="11" style="stroke:#181818;stroke-width:1.0;"/><path d="M86.3643,523.0883 L78.6445,523.0883 L78.6445,510.6952 L86.3643,510.6952 L86.3643,512.8534 L81.0933,512.8534 L81.0933,515.5263 L85.8662,515.5263 L85.8662,517.6845 L81.0933,517.6845 L81.0933,520.9301 L86.3643,520.9301 Z " fill="#000000"/><text fill="#000000" font-family="sans-serif" font-size="14" lengthAdjust="spacing" textLength="33" x="103.25" y="521.8793">Tags</text><line style="stroke:#181818;stroke-width:0.5;" x1="8" x2="199" y1="532.5883" y2="532.5883"/><ellipse cx="18" cy="546.3324" fill="#000000" rx="3" ry="3" style="stroke:#000000;stroke-width:1.0;"/><text fill="#000000" font-family="sans-serif" font-size="14" lengthAdjust="spacing" textLength="110" x="27" y="550.1234">TagID : INT &#171;PK&#187;</text><line style="stroke:#181818;stroke-width:1.0;" x1="8" x2="199" y1="557.0766" y2="557.0766"/><text fill="#000000" font-family="sans-serif" font-size="14" lengthAdjust="spacing" textLength="181" x="13" y="574.6117">TagName : VARCHAR(100)</text></g><!--class VideoTags--><g id="elem_VideoTags"><rect codeLine="51" fill="#F1F1F1" height="97.4648" id="VideoTags" rx="2.5" ry="2.5" style="stroke:#181818;stroke-width:0.5;" width="175" x="59" y="741.0083"/><ellipse cx="106.25" cy="757.0083" fill="#ADD1B2" rx="11" ry="11" style="stroke:#181818;stroke-width:1.0;"/><path d="M109.8643,763.5083 L102.1445,763.5083 L102.1445,751.1152 L109.8643,751.1152 L109.8643,753.2734 L104.5933,753.2734 L104.5933,755.9463 L109.3662,755.9463 L109.3662,758.1045 L104.5933,758.1045 L104.5933,761.3501 L109.8643,761.3501 Z " fill="#000000"/><text fill="#000000" font-family="sans-serif" font-size="14" lengthAdjust="spacing" textLength="72" x="126.75" y="762.2993">VideoTags</text><line style="stroke:#181818;stroke-width:0.5;" x1="60" x2="233" y1="773.0083" y2="773.0083"/><ellipse cx="70" cy="786.7524" fill="#000000" rx="3" ry="3" style="stroke:#000000;stroke-width:1.0;"/><text fill="#000000" font-family="sans-serif" font-size="14" lengthAdjust="spacing" textLength="149" x="79" y="790.5434">VideoTagID : INT &#171;PK&#187;</text><line style="stroke:#181818;stroke-width:1.0;" x1="60" x2="233" y1="797.4966" y2="797.4966"/><text fill="#000000" font-family="sans-serif" font-size="14" lengthAdjust="spacing" textLength="123" x="65" y="815.0317">VideoID : INT &#171;FK&#187;</text><text fill="#000000" font-family="sans-serif" font-size="14" lengthAdjust="spacing" textLength="110" x="65" y="831.52">TagID : INT &#171;FK&#187;</text></g><!--class Comments--><g id="elem_Comments"><rect codeLine="58" fill="#F1F1F1" height="146.9297" id="Comments" rx="2.5" ry="2.5" style="stroke:#181818;stroke-width:0.5;" width="192" x="521.5" y="716.2783"/><ellipse cx="576.25" cy="732.2783" fill="#ADD1B2" rx="11" ry="11" style="stroke:#181818;stroke-width:1.0;"/><path d="M579.8643,738.7783 L572.1445,738.7783 L572.1445,726.3852 L579.8643,726.3852 L579.8643,728.5434 L574.5933,728.5434 L574.5933,731.2163 L579.3662,731.2163 L579.3662,733.3745 L574.5933,733.3745 L574.5933,736.6201 L579.8643,736.6201 Z " fill="#000000"/><text fill="#000000" font-family="sans-serif" font-size="14" lengthAdjust="spacing" textLength="74" x="596.75" y="737.5693">Comments</text><line style="stroke:#181818;stroke-width:0.5;" x1="522.5" x2="712.5" y1="748.2783" y2="748.2783"/><ellipse cx="532.5" cy="762.0224" fill="#000000" rx="3" ry="3" style="stroke:#000000;stroke-width:1.0;"/><text fill="#000000" font-family="sans-serif" font-size="14" lengthAdjust="spacing" textLength="151" x="541.5" y="765.8134">CommentID : INT &#171;PK&#187;</text><line style="stroke:#181818;stroke-width:1.0;" x1="522.5" x2="712.5" y1="772.7666" y2="772.7666"/><text fill="#000000" font-family="sans-serif" font-size="14" lengthAdjust="spacing" textLength="123" x="527.5" y="790.3017">VideoID : INT &#171;FK&#187;</text><text fill="#000000" font-family="sans-serif" font-size="14" lengthAdjust="spacing" textLength="115" x="527.5" y="806.79">UserID : INT &#171;FK&#187;</text><text fill="#000000" font-family="sans-serif" font-size="14" lengthAdjust="spacing" textLength="114" x="527.5" y="823.2783">Comment : TEXT</text><text fill="#000000" font-family="sans-serif" font-size="14" lengthAdjust="spacing" textLength="180" x="527.5" y="839.7666">CommentDate : DATETIME</text><text fill="#000000" font-family="sans-serif" font-size="14" lengthAdjust="spacing" textLength="173" x="527.5" y="856.2548">ModifiedDate : DATETIME</text></g><!--class Ratings--><g id="elem_Ratings"><rect codeLine="68" fill="#F1F1F1" height="130.4414" id="Ratings" rx="2.5" ry="2.5" style="stroke:#181818;stroke-width:0.5;" width="169" x="291" y="724.5183"/><ellipse cx="345.75" cy="740.5183" fill="#ADD1B2" rx="11" ry="11" style="stroke:#181818;stroke-width:1.0;"/><path d="M349.3643,747.0183 L341.6445,747.0183 L341.6445,734.6252 L349.3643,734.6252 L349.3643,736.7834 L344.0933,736.7834 L344.0933,739.4563 L348.8662,739.4563 L348.8662,741.6145 L344.0933,741.6145 L344.0933,744.8601 L349.3643,744.8601 Z " fill="#000000"/><text fill="#000000" font-family="sans-serif" font-size="14" lengthAdjust="spacing" textLength="51" x="366.25" y="745.8093">Ratings</text><line style="stroke:#181818;stroke-width:0.5;" x1="292" x2="459" y1="756.5183" y2="756.5183"/><ellipse cx="302" cy="770.2624" fill="#000000" rx="3" ry="3" style="stroke:#000000;stroke-width:1.0;"/><text fill="#000000" font-family="sans-serif" font-size="14" lengthAdjust="spacing" textLength="128" x="311" y="774.0534">RatingID : INT &#171;PK&#187;</text><line style="stroke:#181818;stroke-width:1.0;" x1="292" x2="459" y1="781.0066" y2="781.0066"/><text fill="#000000" font-family="sans-serif" font-size="14" lengthAdjust="spacing" textLength="123" x="297" y="798.5417">VideoID : INT &#171;FK&#187;</text><text fill="#000000" font-family="sans-serif" font-size="14" lengthAdjust="spacing" textLength="115" x="297" y="815.03">UserID : INT &#171;FK&#187;</text><text fill="#000000" font-family="sans-serif" font-size="14" lengthAdjust="spacing" textLength="111" x="297" y="831.5183">Rating : TINYINT</text><text fill="#000000" font-family="sans-serif" font-size="14" lengthAdjust="spacing" textLength="157" x="297" y="848.0066">RatingDate : DATETIME</text></g><!--link Sports to Matches--><g id="link_Sports_Matches"><path codeLine="78" d="M355.5,166.7083 C355.5,190.5083 355.5,192.3583 355.5,216.9983 " fill="none" id="Sports-Matches" style="stroke:#181818;stroke-width:1.0;"/><line style="stroke:#181818;stroke-width:1.0;" x1="351.5" x2="359.5" y1="162.7083" y2="162.7083"/><line style="stroke:#181818;stroke-width:1.0;" x1="351.5" x2="359.5" y1="165.7083" y2="165.7083"/><line style="stroke:#181818;stroke-width:1.0;" x1="355.5" x2="355.5" y1="166.7083" y2="158.7083"/><line style="stroke:#181818;stroke-width:1.0;" x1="355.5" x2="361.5" y1="226.9983" y2="234.9983"/><line style="stroke:#181818;stroke-width:1.0;" x1="355.5" x2="349.5" y1="226.9983" y2="234.9983"/><line style="stroke:#181818;stroke-width:1.0;" x1="355.5" x2="355.5" y1="226.9983" y2="234.9983"/><ellipse cx="355.5" cy="220.9983" fill="none" rx="4" ry="4" style="stroke:#181818;stroke-width:1.0;"/><text fill="#000000" font-family="sans-serif" font-size="13" lengthAdjust="spacing" textLength="22" x="356.5" y="202.0066">1..*</text></g><!--link Matches to Videos--><g id="link_Matches_Videos"><path codeLine="79" d="M355.5,374.1783 C355.5,397.7683 355.5,398.9883 355.5,424.7983 " fill="none" id="Matches-Videos" style="stroke:#181818;stroke-width:1.0;"/><line style="stroke:#181818;stroke-width:1.0;" x1="351.5" x2="359.5" y1="370.1783" y2="370.1783"/><line style="stroke:#181818;stroke-width:1.0;" x1="351.5" x2="359.5" y1="373.1783" y2="373.1783"/><line style="stroke:#181818;stroke-width:1.0;" x1="355.5" x2="355.5" y1="374.1783" y2="366.1783"/><line style="stroke:#181818;stroke-width:1.0;" x1="355.5" x2="361.5" y1="434.7983" y2="442.7983"/><line style="stroke:#181818;stroke-width:1.0;" x1="355.5" x2="349.5" y1="434.7983" y2="442.7983"/><line style="stroke:#181818;stroke-width:1.0;" x1="355.5" x2="355.5" y1="434.7983" y2="442.7983"/><ellipse cx="355.5" cy="428.7983" fill="none" rx="4" ry="4" style="stroke:#181818;stroke-width:1.0;"/><text fill="#000000" font-family="sans-serif" font-size="13" lengthAdjust="spacing" textLength="22" x="356.5" y="409.4566">1..*</text></g><!--link Videos to VideoTags--><g id="link_Videos_VideoTags"><path codeLine="80" d="M267.7279,645.6715 C238.2879,680.4115 223.2266,698.1855 198.8566,726.9455 " fill="none" id="Videos-VideoTags" style="stroke:#181818;stroke-width:1.0;"/><line style="stroke:#181818;stroke-width:1.0;" x1="267.2623" x2="273.3656" y1="640.0338" y2="645.2059"/><line style="stroke:#181818;stroke-width:1.0;" x1="265.3228" x2="271.426" y1="642.3225" y2="647.4947"/><line style="stroke:#181818;stroke-width:1.0;" x1="267.7279" x2="272.9" y1="645.6715" y2="639.5683"/><line style="stroke:#181818;stroke-width:1.0;" x1="192.3918" x2="191.7976" y1="734.5748" y2="744.5571"/><line style="stroke:#181818;stroke-width:1.0;" x1="192.3918" x2="182.6424" y1="734.5748" y2="736.7994"/><line style="stroke:#181818;stroke-width:1.0;" x1="192.3918" x2="187.22" y1="734.5748" y2="740.6783"/><ellipse cx="196.2707" cy="729.9972" fill="none" rx="4" ry="4" style="stroke:#181818;stroke-width:1.0;"/><text fill="#000000" font-family="sans-serif" font-size="13" lengthAdjust="spacing" textLength="22" x="245.73" y="682.8466">1..*</text></g><!--link Tags to VideoTags--><g id="link_Tags_VideoTags"><path codeLine="81" d="M111.8341,589.8694 C119.3941,633.2294 127.0004,676.8654 135.0604,723.1254 " fill="none" id="Tags-VideoTags" style="stroke:#181818;stroke-width:1.0;"/><line style="stroke:#181818;stroke-width:1.0;" x1="107.2065" x2="115.0876" y1="586.6159" y2="585.2418"/><line style="stroke:#181818;stroke-width:1.0;" x1="107.7218" x2="115.6029" y1="589.5713" y2="588.1972"/><line style="stroke:#181818;stroke-width:1.0;" x1="111.8341" x2="110.46" y1="589.8694" y2="581.9883"/><line style="stroke:#181818;stroke-width:1.0;" x1="136.7768" x2="144.061" y1="732.977" y2="739.8284"/><line style="stroke:#181818;stroke-width:1.0;" x1="136.7768" x2="132.239" y1="732.977" y2="741.8882"/><line style="stroke:#181818;stroke-width:1.0;" x1="136.7768" x2="138.15" y1="732.977" y2="740.8583"/><ellipse cx="135.7469" cy="727.0661" fill="none" rx="4" ry="4" style="stroke:#181818;stroke-width:1.0;"/><text fill="#000000" font-family="sans-serif" font-size="13" lengthAdjust="spacing" textLength="22" x="128.57" y="682.8466">1..*</text></g><!--link Videos to Comments--><g id="link_Videos_Comments"><path codeLine="82" d="M419.7727,645.8987 C432.0827,662.4587 440.98,672.3683 455.5,686.2783 C474.96,704.9283 483.173,712.3137 506.023,726.9837 " fill="none" id="Videos-Comments" style="stroke:#181818;stroke-width:1.0;"/><line style="stroke:#181818;stroke-width:1.0;" x1="414.1761" x2="420.5965" y1="645.0748" y2="640.3022"/><line style="stroke:#181818;stroke-width:1.0;" x1="415.9659" x2="422.3863" y1="647.4825" y2="642.7098"/><line style="stroke:#181818;stroke-width:1.0;" x1="419.7727" x2="415" y1="645.8987" y2="639.4783"/><line style="stroke:#181818;stroke-width:1.0;" x1="514.438" x2="524.4115" y1="732.3862" y2="731.6593"/><line style="stroke:#181818;stroke-width:1.0;" x1="514.438" x2="517.9285" y1="732.3862" y2="741.7573"/><line style="stroke:#181818;stroke-width:1.0;" x1="514.438" x2="521.17" y1="732.3862" y2="736.7083"/><ellipse cx="509.389" cy="729.1447" fill="none" rx="4" ry="4" style="stroke:#181818;stroke-width:1.0;"/><text fill="#000000" font-family="sans-serif" font-size="13" lengthAdjust="spacing" textLength="22" x="456.5" y="682.8466">1..*</text></g><!--link Users to Comments--><g id="link_Users_Comments"><path codeLine="83" d="M621.7349,639.4751 C620.9549,667.1851 620.8302,671.3955 620.0802,697.8455 " fill="none" id="Users-Comments" style="stroke:#181818;stroke-width:1.0;"/><line style="stroke:#181818;stroke-width:1.0;" x1="617.849" x2="625.8459" y1="635.3641" y2="635.5892"/><line style="stroke:#181818;stroke-width:1.0;" x1="617.7646" x2="625.7615" y1="638.363" y2="638.5881"/><line style="stroke:#181818;stroke-width:1.0;" x1="621.7349" x2="621.96" y1="639.4751" y2="631.4783"/><line style="stroke:#181818;stroke-width:1.0;" x1="619.7968" x2="625.5676" y1="707.8415" y2="716.0083"/><line style="stroke:#181818;stroke-width:1.0;" x1="619.7968" x2="613.5724" y1="707.8415" y2="715.6682"/><line style="stroke:#181818;stroke-width:1.0;" x1="619.7968" x2="619.57" y1="707.8415" y2="715.8383"/><ellipse cx="619.9668" cy="701.8439" fill="none" rx="4" ry="4" style="stroke:#181818;stroke-width:1.0;"/><text fill="#000000" font-family="sans-serif" font-size="13" lengthAdjust="spacing" textLength="22" x="621.79" y="682.8466">1..*</text></g><!--link Videos to Ratings--><g id="link_Videos_Ratings"><path codeLine="84" d="M364.0483,647.542 C366.3583,675.952 366.7189,680.3669 368.8089,706.2069 " fill="none" id="Videos-Ratings" style="stroke:#181818;stroke-width:1.0;"/><line style="stroke:#181818;stroke-width:1.0;" x1="359.7373" x2="367.711" y1="643.8793" y2="643.231"/><line style="stroke:#181818;stroke-width:1.0;" x1="359.9805" x2="367.9541" y1="646.8694" y2="646.2211"/><line style="stroke:#181818;stroke-width:1.0;" x1="364.0483" x2="363.4" y1="647.542" y2="639.5683"/><line style="stroke:#181818;stroke-width:1.0;" x1="369.615" x2="376.2405" y1="716.1743" y2="723.6646"/><line style="stroke:#181818;stroke-width:1.0;" x1="369.615" x2="364.2795" y1="716.1743" y2="724.632"/><line style="stroke:#181818;stroke-width:1.0;" x1="369.615" x2="370.26" y1="716.1743" y2="724.1483"/><ellipse cx="369.1313" cy="710.1939" fill="none" rx="4" ry="4" style="stroke:#181818;stroke-width:1.0;"/><text fill="#000000" font-family="sans-serif" font-size="13" lengthAdjust="spacing" textLength="22" x="367.7" y="682.8466">1..*</text></g><!--link Users to Ratings--><g id="link_Users_Ratings"><path codeLine="85" d="M535.8873,637.2666 C518.3173,655.6166 505.25,668.8683 487.5,686.2783 C474.8,698.7383 474.24,699.5323 460.81,711.9423 " fill="none" id="Users-Ratings" style="stroke:#181818;stroke-width:1.0;"/><line style="stroke:#181818;stroke-width:1.0;" x1="535.7645" x2="541.5428" y1="631.6111" y2="637.1438"/><line style="stroke:#181818;stroke-width:1.0;" x1="533.6897" x2="539.468" y1="633.778" y2="639.3107"/><line style="stroke:#181818;stroke-width:1.0;" x1="535.8873" x2="541.42" y1="637.2666" y2="631.4883"/><line style="stroke:#181818;stroke-width:1.0;" x1="453.4656" x2="451.662" y1="718.729" y2="728.565"/><line style="stroke:#181818;stroke-width:1.0;" x1="453.4656" x2="443.518" y1="718.729" y2="719.7516"/><line style="stroke:#181818;stroke-width:1.0;" x1="453.4656" x2="447.59" y1="718.729" y2="724.1583"/><ellipse cx="457.8723" cy="714.657" fill="none" rx="4" ry="4" style="stroke:#181818;stroke-width:1.0;"/><text fill="#000000" font-family="sans-serif" font-size="13" lengthAdjust="spacing" textLength="22" x="503.81" y="682.8466">1..*</text></g><!--SRC=[hLHDJ-Cm4BtdLrYz1115j5ek225rcnIYfLKL0jez6Z8q8oLn5RjRxGB_7NybJTFu0E8IUTxppBpnYorGv406OHoG6Ql8DCSrkO4IDtpWGIbG_2FtQrO9JbuzGaxqEWh89OaM2RcwMlwwlfRuS2W_2rg091udyVHs4X-Dpi-F9He0VwvmBP2Laap2tua4fnLG0MaWFn8C9acOHFFGU_VgdWySAjjIBHqT5LNsTWqBYdaB7bzSA7X9ET-oAhsbF3jaOrWX5nLLMhlI2BcZNDon5VPGSvRY2nxE8qkoN27Xuc5-vDEqmD8_9VvVX2rK_d5hu3aLpndOaNNWcBdLGqPTFsPcPmAq67Nyi4CgQjn7xRGyOWhCIj5hXvIkJDjSfymmXoKLsPurunzQGROfdahfZuDNgVVuNmdy6Tt8qchgZR75zD9DOClREno_bDkStRm9NTbfvSengsJw_k_EeUqgrQ6ZNFTOQz_s4ZIuwp1bHI6Nje6DFbU_SvSiQakrhgS1ldAMiRIfh0_11DyXqLHI2gF57sEuWNgK-FBDUS4II0Mv_cbuXclksMVixMquPA_DVRiaWz7PsSd0gm7BsplGq3PkizhiPeEEtFH-VcDbmvi7pqdlfzU7t9zzm7u0]--></g></svg>