<?xml version="1.0" encoding="us-ascii" standalone="no"?><svg xmlns="http://www.w3.org/2000/svg" xmlns:xlink="http://www.w3.org/1999/xlink" contentStyleType="text/css" height="660px" preserveAspectRatio="none" style="width:1309px;height:660px;background:#FFFFFF;" version="1.1" viewBox="0 0 1309 660" width="1309px" zoomAndPan="magnify"><defs/><g><text fill="#000000" font-family="sans-serif" font-size="14" font-weight="bold" lengthAdjust="spacing" textLength="336" x="487.5" y="28.5352">Command-Line Application Sequence Diagram</text><rect fill="none" height="267.3945" style="stroke:#000000;stroke-width:1.5;" width="744.5" x="557.5" y="236.9082"/><line style="stroke:#181818;stroke-width:0.5;stroke-dasharray:5.0,5.0;" x1="23" x2="23" y1="118.9766" y2="579.9238"/><line style="stroke:#181818;stroke-width:0.5;stroke-dasharray:5.0,5.0;" x1="322" x2="322" y1="118.9766" y2="579.9238"/><line style="stroke:#181818;stroke-width:0.5;stroke-dasharray:5.0,5.0;" x1="640.5" x2="640.5" y1="118.9766" y2="579.9238"/><line style="stroke:#181818;stroke-width:0.5;stroke-dasharray:5.0,5.0;" x1="877" x2="877" y1="118.9766" y2="579.9238"/><line style="stroke:#181818;stroke-width:0.5;stroke-dasharray:5.0,5.0;" x1="1005" x2="1005" y1="118.9766" y2="579.9238"/><line style="stroke:#181818;stroke-width:0.5;stroke-dasharray:5.0,5.0;" x1="1181" x2="1181" y1="118.9766" y2="579.9238"/><text fill="#000000" font-family="sans-serif" font-size="14" lengthAdjust="spacing" textLength="31" x="5" y="116.0234">User</text><ellipse cx="23.5" cy="50.9883" fill="#E2E2F0" rx="8" ry="8" style="stroke:#181818;stroke-width:0.5;"/><path d="M23.5,58.9883 L23.5,85.9883 M10.5,66.9883 L36.5,66.9883 M23.5,85.9883 L10.5,100.9883 M23.5,85.9883 L36.5,100.9883 " fill="none" style="stroke:#181818;stroke-width:0.5;"/><text fill="#000000" font-family="sans-serif" font-size="14" lengthAdjust="spacing" textLength="31" x="5" y="592.459">User</text><ellipse cx="23.5" cy="603.9121" fill="#E2E2F0" rx="8" ry="8" style="stroke:#181818;stroke-width:0.5;"/><path d="M23.5,611.9121 L23.5,638.9121 M10.5,619.9121 L36.5,619.9121 M23.5,638.9121 L10.5,653.9121 M23.5,638.9121 L36.5,653.9121 " fill="none" style="stroke:#181818;stroke-width:0.5;"/><rect fill="#E2E2F0" height="30.4883" rx="2.5" ry="2.5" style="stroke:#181818;stroke-width:0.5;" width="117" x="264" y="87.4883"/><text fill="#000000" font-family="sans-serif" font-size="14" lengthAdjust="spacing" textLength="103" x="271" y="108.0234">Command Line</text><rect fill="#E2E2F0" height="30.4883" rx="2.5" ry="2.5" style="stroke:#181818;stroke-width:0.5;" width="117" x="264" y="578.9238"/><text fill="#000000" font-family="sans-serif" font-size="14" lengthAdjust="spacing" textLength="103" x="271" y="599.459">Command Line</text><rect fill="#E2E2F0" height="30.4883" rx="2.5" ry="2.5" style="stroke:#181818;stroke-width:0.5;" width="146" x="567.5" y="87.4883"/><text fill="#000000" font-family="sans-serif" font-size="14" lengthAdjust="spacing" textLength="132" x="574.5" y="108.0234">video_processor.py</text><rect fill="#E2E2F0" height="30.4883" rx="2.5" ry="2.5" style="stroke:#181818;stroke-width:0.5;" width="146" x="567.5" y="578.9238"/><text fill="#000000" font-family="sans-serif" font-size="14" lengthAdjust="spacing" textLength="132" x="574.5" y="599.459">video_processor.py</text><rect fill="#E2E2F0" height="30.4883" rx="2.5" ry="2.5" style="stroke:#181818;stroke-width:0.5;" width="125" x="815" y="87.4883"/><text fill="#000000" font-family="sans-serif" font-size="14" lengthAdjust="spacing" textLength="111" x="822" y="108.0234">PROCESS_VIDEO</text><rect fill="#E2E2F0" height="30.4883" rx="2.5" ry="2.5" style="stroke:#181818;stroke-width:0.5;" width="125" x="815" y="578.9238"/><text fill="#000000" font-family="sans-serif" font-size="14" lengthAdjust="spacing" textLength="111" x="822" y="599.459">PROCESS_VIDEO</text><rect fill="#E2E2F0" height="30.4883" rx="2.5" ry="2.5" style="stroke:#181818;stroke-width:0.5;" width="110" x="950" y="87.4883"/><text fill="#000000" font-family="sans-serif" font-size="14" lengthAdjust="spacing" textLength="96" x="957" y="108.0234">PROCESS_FILE</text><rect fill="#E2E2F0" height="30.4883" rx="2.5" ry="2.5" style="stroke:#181818;stroke-width:0.5;" width="110" x="950" y="578.9238"/><text fill="#000000" font-family="sans-serif" font-size="14" lengthAdjust="spacing" textLength="96" x="957" y="599.459">PROCESS_FILE</text><rect fill="#E2E2F0" height="30.4883" rx="2.5" ry="2.5" style="stroke:#181818;stroke-width:0.5;" width="222" x="1070" y="87.4883"/><text fill="#000000" font-family="sans-serif" font-size="14" lengthAdjust="spacing" textLength="208" x="1077" y="108.0234">PROCESS_FILE_MULTI_THREAD</text><rect fill="#E2E2F0" height="30.4883" rx="2.5" ry="2.5" style="stroke:#181818;stroke-width:0.5;" width="222" x="1070" y="578.9238"/><text fill="#000000" font-family="sans-serif" font-size="14" lengthAdjust="spacing" textLength="208" x="1077" y="599.459">PROCESS_FILE_MULTI_THREAD</text><polygon fill="#181818" points="310.5,146.2871,320.5,150.2871,310.5,154.2871,314.5,150.2871" style="stroke:#181818;stroke-width:1.0;"/><line style="stroke:#181818;stroke-width:1.0;" x1="23.5" x2="316.5" y1="150.2871" y2="150.2871"/><text fill="#000000" font-family="sans-serif" font-size="13" lengthAdjust="spacing" textLength="275" x="30.5" y="145.5449">Runs script with video_path and --function</text><polygon fill="#181818" points="628.5,175.5977,638.5,179.5977,628.5,183.5977,632.5,179.5977" style="stroke:#181818;stroke-width:1.0;"/><line style="stroke:#181818;stroke-width:1.0;" x1="322.5" x2="634.5" y1="179.5977" y2="179.5977"/><text fill="#000000" font-family="sans-serif" font-size="13" lengthAdjust="spacing" textLength="294" x="329.5" y="174.8555">Parses arguments (video_path, function_name)</text><line style="stroke:#181818;stroke-width:1.0;" x1="640.5" x2="682.5" y1="208.9082" y2="208.9082"/><line style="stroke:#181818;stroke-width:1.0;" x1="682.5" x2="682.5" y1="208.9082" y2="221.9082"/><line style="stroke:#181818;stroke-width:1.0;" x1="641.5" x2="682.5" y1="221.9082" y2="221.9082"/><polygon fill="#181818" points="651.5,217.9082,641.5,221.9082,651.5,225.9082,647.5,221.9082" style="stroke:#181818;stroke-width:1.0;"/><text fill="#000000" font-family="sans-serif" font-size="13" lengthAdjust="spacing" textLength="155" x="647.5" y="204.166">Validates function_name</text><path d="M557.5,236.9082 L619.5,236.9082 L619.5,244.2188 L609.5,254.2188 L557.5,254.2188 L557.5,236.9082 " fill="#EEEEEE" style="stroke:#000000;stroke-width:1.5;"/><rect fill="none" height="267.3945" style="stroke:#000000;stroke-width:1.5;" width="744.5" x="557.5" y="236.9082"/><text fill="#000000" font-family="sans-serif" font-size="13" font-weight="bold" lengthAdjust="spacing" textLength="17" x="572.5" y="250.4766">alt</text><text fill="#000000" font-family="sans-serif" font-size="11" font-weight="bold" lengthAdjust="spacing" textLength="221" x="634.5" y="249.543">[function_name == "PROCESS_VIDEO"]</text><polygon fill="#181818" points="865.5,271.5293,875.5,275.5293,865.5,279.5293,869.5,275.5293" style="stroke:#181818;stroke-width:1.0;"/><line style="stroke:#181818;stroke-width:1.0;" x1="640.5" x2="871.5" y1="275.5293" y2="275.5293"/><text fill="#000000" font-family="sans-serif" font-size="13" lengthAdjust="spacing" textLength="213" x="647.5" y="270.7871">Calls PROCESS_VIDEO(video_path)</text><polygon fill="#181818" points="651.5,300.8398,641.5,304.8398,651.5,308.8398,647.5,304.8398" style="stroke:#181818;stroke-width:1.0;"/><line style="stroke:#181818;stroke-width:1.0;stroke-dasharray:2.0,2.0;" x1="645.5" x2="876.5" y1="304.8398" y2="304.8398"/><text fill="#000000" font-family="sans-serif" font-size="13" lengthAdjust="spacing" textLength="48" x="657.5" y="300.0977">Returns</text><line style="stroke:#000000;stroke-width:1.0;stroke-dasharray:2.0,2.0;" x1="557.5" x2="1302" y1="313.8398" y2="313.8398"/><text fill="#000000" font-family="sans-serif" font-size="11" font-weight="bold" lengthAdjust="spacing" textLength="207" x="562.5" y="324.4746">[function_name == "PROCESS_FILE"]</text><polygon fill="#181818" points="993,345.1055,1003,349.1055,993,353.1055,997,349.1055" style="stroke:#181818;stroke-width:1.0;"/><line style="stroke:#181818;stroke-width:1.0;" x1="640.5" x2="999" y1="349.1055" y2="349.1055"/><text fill="#000000" font-family="sans-serif" font-size="13" lengthAdjust="spacing" textLength="199" x="647.5" y="344.3633">Calls PROCESS_FILE(video_path)</text><polygon fill="#181818" points="651.5,374.416,641.5,378.416,651.5,382.416,647.5,378.416" style="stroke:#181818;stroke-width:1.0;"/><line style="stroke:#181818;stroke-width:1.0;stroke-dasharray:2.0,2.0;" x1="645.5" x2="1004" y1="378.416" y2="378.416"/><text fill="#000000" font-family="sans-serif" font-size="13" lengthAdjust="spacing" textLength="48" x="657.5" y="373.6738">Returns</text><line style="stroke:#000000;stroke-width:1.0;stroke-dasharray:2.0,2.0;" x1="557.5" x2="1302" y1="387.416" y2="387.416"/><text fill="#000000" font-family="sans-serif" font-size="11" font-weight="bold" lengthAdjust="spacing" textLength="304" x="562.5" y="398.0508">[function_name == "PROCESS_FILE_MULTI_THREAD"]</text><polygon fill="#181818" points="1169,418.6816,1179,422.6816,1169,426.6816,1173,422.6816" style="stroke:#181818;stroke-width:1.0;"/><line style="stroke:#181818;stroke-width:1.0;" x1="640.5" x2="1175" y1="422.6816" y2="422.6816"/><text fill="#000000" font-family="sans-serif" font-size="13" lengthAdjust="spacing" textLength="304" x="647.5" y="417.9395">Calls PROCESS_FILE_MULTI_THREAD(video_path)</text><polygon fill="#181818" points="651.5,447.9922,641.5,451.9922,651.5,455.9922,647.5,451.9922" style="stroke:#181818;stroke-width:1.0;"/><line style="stroke:#181818;stroke-width:1.0;stroke-dasharray:2.0,2.0;" x1="645.5" x2="1180" y1="451.9922" y2="451.9922"/><text fill="#000000" font-family="sans-serif" font-size="13" lengthAdjust="spacing" textLength="48" x="657.5" y="447.25">Returns</text><line style="stroke:#000000;stroke-width:1.0;stroke-dasharray:2.0,2.0;" x1="557.5" x2="1302" y1="460.9922" y2="460.9922"/><line style="stroke:#181818;stroke-width:1.0;" x1="640.5" x2="682.5" y1="483.3027" y2="483.3027"/><line style="stroke:#181818;stroke-width:1.0;" x1="682.5" x2="682.5" y1="483.3027" y2="496.3027"/><line style="stroke:#181818;stroke-width:1.0;" x1="641.5" x2="682.5" y1="496.3027" y2="496.3027"/><polygon fill="#181818" points="651.5,492.3027,641.5,496.3027,651.5,500.3027,647.5,496.3027" style="stroke:#181818;stroke-width:1.0;"/><text fill="#000000" font-family="sans-serif" font-size="13" lengthAdjust="spacing" textLength="198" x="647.5" y="478.5605">Prints error (Unknown function)</text><polygon fill="#181818" points="333.5,528.6133,323.5,532.6133,333.5,536.6133,329.5,532.6133" style="stroke:#181818;stroke-width:1.0;"/><line style="stroke:#181818;stroke-width:1.0;stroke-dasharray:2.0,2.0;" x1="327.5" x2="639.5" y1="532.6133" y2="532.6133"/><text fill="#000000" font-family="sans-serif" font-size="13" lengthAdjust="spacing" textLength="94" x="339.5" y="527.8711">Returns output</text><polygon fill="#181818" points="34.5,557.9238,24.5,561.9238,34.5,565.9238,30.5,561.9238" style="stroke:#181818;stroke-width:1.0;"/><line style="stroke:#181818;stroke-width:1.0;stroke-dasharray:2.0,2.0;" x1="28.5" x2="321.5" y1="561.9238" y2="561.9238"/><text fill="#000000" font-family="sans-serif" font-size="13" lengthAdjust="spacing" textLength="100" x="40.5" y="557.1816">Displays output</text><!--SRC=[dPD1ReCm44NtFiKegqGgFG1IAaK4L2Ig821iqGZSr2eOrpQDSllQa990aYxA2k7tv__n39hfceBNDWtooeaOfx0HecObQjPoIEbNHtb9OSlm8B4X14lTIjWhAeb0gLd9178DYtC9i2KMW0gyA9mItwoYRI5aMrAbMlaiJZsNbf89FKNZPEVvQLhauTRVzLIStoU2CF8787WC56_xA0kBx3NnDzipdH5Ycm3dnIPr8Ucu0jLdWIFJ7t2EY-RLzkKuxnqlxQKGmrlP4Do56AMY2b0UkePohM1vaJx1hwhWsD0L6KJNyXnhLg4s5IOemLfFly1wFRyP0kQvb8np5poiQzFVDNQLPzKhujoqSqcGKDr9hWYj5Vt3ih_gkMCmTxJKhM7mNyFfw6xSitls4ysTBDd3CBFwuuGbitEbKfhLN-xv9s-FV0o-8fHNus37VHhAGjjfqUbXPyoPtJdN_4rAr7WQJty0]--></g></svg>